# AST/ASF file generated using VICON BodyLanguage
# -----------------------------------------------
:version 1.10
:name VICON
:units
  mass 1.0
  length 0.45
  angle deg
:documentation
   .ast/.asf automatically generated from VICON data using
   VICON BodyBuilder and BodyLanguage model FoxedUp or BRILLIANT.MOD
:root
   order TX TY TZ RX RY RZ
   axis XYZ
   position 0 0 0  
   orientation 0 0 0 
:bonedata
  begin
     id 1 
     name lhipjoint
     direction 0.610259 -0.730986 0.305356 
     length 2.50941 
     axis 0 0 0  XYZ
  end
  begin
     id 2 
     name lfemur
     direction 0.34202 -0.939693 0  
     length 7.48822  
     axis 0 0 20  XYZ
    dof rx ry rz
    limits (-160.0 20.0)
           (-70.0 70.0)
           (-60.0 70.0)
  end
  begin
     id 3 
     name ltibia
     direction 0.34202 -0.939693 0   
     length 7.60141   
     axis 0 0 20   XYZ
    dof rx
    limits (-10.0 170.0)
  end
  begin
     id 4 
     name lfoot
     direction 0.0673488 -0.185039 0.980421   
     length 2.04049   
     axis -90 7.62852e-016 20   XYZ
    dof rx rz
    limits (-45.0 90.0)
           (-70.0 20.0)
  end
  begin
     id 5 
     name ltoes
     direction 1.5356e-011 -4.21729e-011 1   
     length 1.02897   
     axis -90 7.62852e-016 20   XYZ
    dof rx
    limits (-90.0 20.0)
  end
  begin
     id 6 
     name rhipjoint
     direction -0.57612 -0.754205 0.315056   
     length 2.43216  
     axis 0 0 0  XYZ 
  end
  begin
     id 7 
     name rfemur
     direction -0.34202 -0.939693 0   
     length 7.42799   
     axis 0 0 -20   XYZ
    dof rx ry rz
    limits (-160.0 20.0)
           (-70.0 70.0)
           (-70.0 60.0)
  end
  begin
     id 8 
     name rtibia
     direction -0.34202 -0.939693 0   
     length 7.69484   
     axis 0 0 -20   XYZ
    dof rx
    limits (-10.0 170.0)
 end
 begin
     id 9 
     name rfoot
     direction -0.111837 -0.30727 0.945028   
     length 2.15769  
     axis -90 -7.62852e-016 -20   XYZ
    dof rx rz
    limits (-45.0 90.0)
           (-20.0 70.0)
  end
  begin
     id 10 
     name rtoes
     direction -1.53539e-011 -4.21878e-011 1   
     length 1.07391   
     axis -90 -7.62852e-016 -20   XYZ
    dof rx
    limits (-90.0 20.0)
  end
  begin
     id 11 
     name lowerback
     direction 0.00552624 0.990109 -0.140195   
     length 2.12403   
     axis 0 0 0   XYZ
    dof rx ry rz
    limits (-20.0 45.0)
           (-30.0 30.0)
           (-30.0 30.0)
  end
  begin
     id 12 
     name upperback
     direction 0.00361898 0.999976 -0.00584723   
     length 2.13232   
     axis 0 0 0   XYZ
    dof rx ry rz
    limits (-20.0 45.0)
           (-30.0 30.0)
           (-30.0 30.0)
  end
  begin
     id 13 
     name thorax
     direction -0.000331275 0.998253 0.0590847   
     length 2.17688   
     axis 0 0 0   XYZ
    dof rx ry rz
    limits (-20.0 45.0)
           (-30.0 30.0)
           (-30.0 30.0)
  end
  begin
     id 14 
     name lowerneck
     direction -0.0561561 0.979832 0.19177   
     length 1.64159   
     axis 0 0 0   XYZ
    dof rx ry rz
    limits (-20.0 45.0)
           (-30.0 30.0)
           (-30.0 30.0)
  end
  begin
     id 15 
     name upperneck
     direction 0.0827153 0.979385 -0.184293   
     length 1.68939   
     axis 0 0 0   XYZ
    dof rx ry rz
    limits (-20.0 45.0)
           (-30.0 30.0)
           (-30.0 30.0)
  end
  begin
     id 16
     name head
     direction 0.0278583 0.995936 -0.0856488  
     length 1.70207  
     axis 0 0 0   XYZ
    dof rx ry rz
    limits (-20.0 45.0)
           (-30.0 30.0)
           (-30.0 30.0)
  end
  begin
     id 17 
     name lclavicle
     direction 0.950993 0.301131 -0.0702275  
     length 3.41652  
     axis 0 0 0   XYZ
    dof ry rz
    limits (-20.0 10.0)
           (0.0 20.0)
  end
  begin
     id 18 
     name lhumerus
     direction 1 -4.48981e-011 -3.9662e-029   
     length 5.32955   
     axis 180 -30 -90   XYZ
    dof rx ry rz
    limits (-60.0 90.0)
           (-90.0 90.0)
           (-90.0 90.0)
  end
  begin
     id 19
     name lradius
     direction 1 -4.48925e-011 -9.0549e-027   
     length 3.69232   
     axis 180 -30 -90   XYZ
    dof rx
    limits (-10.0 170.0)
  end
  begin
     id 20
     name lwrist
     direction 1 -4.49007e-011 -1.49005e-026   
     length 1.84616   
     axis 9.0955e-015 90 90   XYZ
    dof ry
    limits (-180.0 0.0)
 end
  begin
     id 21 
     name lhand
     direction 1 -4.49016e-011 -2.98023e-026   
     length 0.536598   
     axis 1.90115e-014 90 90   XYZ
    dof rx rz
    limits (-90.0 90.0)
           (-45.0 45.0)
  end
  begin
     id 22 
     name lfingers
     direction 1 -4.48924e-011 -5.9578e-026   
     length 0.432619   
     axis 3.80223e-014 90 90   XYZ
    dof rx
    limits (0.0 90.0)
  end
  begin
     id 23
     name lthumb
     direction 0.707107 -6.34947e-011 0.707107   
     length 0.621157   
     axis -90 45 -3.84942e-014   XYZ
    dof rx rz
    limits (-45.0 45.0)
           (-45.0 45.0)
  end
  begin
     id 24 
     name rclavicle
     direction -0.955495 0.276497 -0.102848   
     length 3.36357  
     axis 0 0 0   XYZ 
    dof ry rz
    limits (-10.0 20.0)
           (-20.0 0.0)
  end
  begin
     id 25 
     name rhumerus
     direction -1 -4.48961e-011 3.30983e-027  
     length 5.23431   
     axis 180 30 90   XYZ
    dof rx ry rz
    limits (-90.0 60.0)
           (-90.0 90.0)
           (-90.0 90.0)
  end
  begin
     id 26 
     name rradius
     direction -1 -4.48965e-011 -6.63263e-027   
     length 3.55301   
     axis 180 30 90   XYZ
    dof rx
    limits (-10.0 170.0)
  end
  begin
     id 27 
     name rwrist
     direction -1 -4.48942e-011 -1.48958e-026   
     length 1.77651   
     axis 9.0955e-015 -90 -90   XYZ
    dof ry
    limits (-180.0 0.0)
  end
  begin
     id 28
     name rhand
     direction -1 -4.48977e-011 -2.97966e-026   
     length 0.772522   
     axis 1.90115e-014 -90 -90   XYZ
    dof rx rz
    limits (-90.0 90.0)
           (-45.0 45.0)
  end
  begin
     id 29
     name rfingers
     direction -1 -4.49135e-011 -5.96389e-026   
     length 0.622827   
     axis 3.80223e-014 -90 -90   XYZ
    dof rx
    limits (0.0 90.0)
  end
  begin
     id 30
     name rthumb
     direction -0.707107 -6.34969e-011 0.707107   
     length 0.894259   
     axis -90 -45 3.84942e-014   XYZ
    dof rx rz
    limits (-45.0 45.0)
           (-45.0 45.0)
  end
:hierarchy
  begin
    root lhipjoint rhipjoint lowerback
    lhipjoint lfemur
    lfemur ltibia
    ltibia lfoot
    lfoot ltoes
    rhipjoint rfemur
    rfemur rtibia
    rtibia rfoot
    rfoot rtoes
    lowerback upperback
    upperback thorax
    thorax lowerneck lclavicle rclavicle
    lowerneck upperneck
    upperneck head
    lclavicle lhumerus
    lhumerus lradius
    lradius lwrist
    lwrist lhand lthumb
    lhand lfingers
    rclavicle rhumerus
    rhumerus rradius
    rradius rwrist
    rwrist rhand rthumb
    rhand rfingers
  end

#!OML:ASF F:\VICON\USERDATA\INSTALL\rory3\rory3.ASF
:FULLY-SPECIFIED
:DEGREES
35
root -0.0702435 18.163 1.69597 0.664933 2.78408 1.0608
lowerback 5.40726 0.297668 -2.38621
upperback -0.952512 0.224349 -0.235531
thorax -4.02671 0.16416 1.07636
lowerneck -20.4183 -7.39271 -13.7003
upperneck 27.6295 -9.95265 12.4678
head 14.2792 -4.17219 5.51707
rclavicle 5.80203e-015 1.09332e-014
rhumerus -34.9902 -12.6246 -82.7061
rradius 29.0618
rwrist 7.88194
rhand -14.995 8.56123
rfingers 7.12502
rthumb 11.1696 -21.1215
lclavicle 5.80203e-015 1.09332e-014
lhumerus -35.4006 7.08179 83.2713
lradius 29.8869
lwrist -7.40279
lhand -18.2954 25.6861
lfingers 7.12502
lthumb 7.98527 55.5153
rfemur -4.23764 0.701637 21.9845
rtibia 21.9956
rfoot -13.0523 -8.41662
rtoes -0.220699
lfemur 3.19435 -33.1062 -24.8415
ltibia 5.98494
lfoot 0.0990084 28.8436
ltoes -6.38882
36
root -0.0682932 18.1627 1.69545 0.656739 2.7831 1.03882
lowerback 5.39127 0.297904 -2.35625
upperback -0.919228 0.227473 -0.241116
thorax -3.98307 0.164209 1.05365
lowerneck -20.598 -7.39061 -13.6478
upperneck 27.7344 -9.93103 12.3953
head 14.3516 -4.16005 5.48463
rclavicle 1.78596e-015 3.97569e-016
rhumerus -34.9206 -12.6511 -82.7366
rradius 29.0422
rwrist 7.8925
rhand -14.9541 8.48481
rfingers 7.12502
rthumb 11.209 -21.1957
lclavicle 1.78596e-015 3.97569e-016
lhumerus -35.2561 7.13115 83.2434
lradius 29.7951
lwrist -7.43793
lhand -18.1288 25.604
lfingers 7.12502
lthumb 8.14601 55.427
rfemur -4.24755 0.7072 22.0054
rtibia 22.0007
rfoot -13.0363 -8.4376
rtoes -0.266135
lfemur 3.23348 -33.1042 -24.8422
ltibia 5.93037
lfoot 0.152552 28.8419
ltoes -6.4885
37
root -0.0651445 18.1609 1.69577 0.663461 2.77047 1.08513
lowerback 5.33911 0.299753 -2.40632
upperback -0.897206 0.228199 -0.246694
thorax -3.93106 0.164905 1.07614
lowerneck -20.6041 -7.37694 -13.6475
upperneck 27.7136 -9.8944 12.3581
head 14.3346 -4.14861 5.47496
rclavicle -1.49554e-015 -5.96354e-016
rhumerus -34.8671 -12.6364 -82.7425
rradius 29.0022
rwrist 7.95008
rhand -14.93 8.43661
rfingers 7.12502
rthumb 11.2322 -21.2427
lclavicle -1.49554e-015 -5.96354e-016
lhumerus -35.2502 7.16262 83.2522
lradius 29.804
lwrist -7.47445
lhand -18.0059 25.5061
lfingers 7.12502
lthumb 8.2646 55.3245
rfemur -4.27975 0.64324 21.9358
rtibia 22.0135
rfoot -12.9993 -8.39691
rtoes -0.51351
lfemur 3.24563 -33.0917 -24.9203
ltibia 5.90186
lfoot 0.224826 28.8546
ltoes -6.57542
38
root -0.0635844 18.161 1.69517 0.676982 2.7613 1.05897
lowerback 5.32614 0.306278 -2.42852
upperback -0.913995 0.236892 -0.211161
thorax -3.94176 0.170396 1.12455
lowerneck -20.4912 -7.3747 -13.7195
upperneck 27.663 -9.88705 12.3953
head 14.2941 -4.15246 5.50361
rclavicle -9.64416e-016 1.13804e-014
rhumerus -34.8547 -12.6108 -82.6991
rradius 28.9211
rwrist 7.93748
rhand -14.9058 8.41652
rfingers 7.12502
rthumb 11.2556 -21.2615
lclavicle -9.64416e-016 1.13804e-014
lhumerus -35.2308 7.25221 83.2591
lradius 29.7203
lwrist -7.56281
lhand -17.9973 25.3527
lfingers 7.12502
lthumb 8.27298 55.1707
rfemur -4.30258 0.66556 21.9595
rtibia 22.0201
rfoot -12.9978 -8.40713
rtoes -0.512691
lfemur 3.20264 -33.0834 -24.8762
ltibia 5.93304
lfoot 0.325122 28.8249
ltoes -6.76814
39
root -0.0598999 18.1618 1.69443 0.692752 2.78727 1.06155
lowerback 5.275 0.292444 -2.45938
upperback -0.886421 0.219602 -0.177755
thorax -3.88395 0.162007 1.1781
lowerneck -20.4981 -7.37764 -13.8299
upperneck 27.6168 -9.87616 12.4877
head 14.2875 -4.14771 5.56233
rclavicle -1.52195e-016 1.19768e-014
rhumerus -34.8133 -12.5413 -82.6704
rradius 28.9338
rwrist 7.95996
rhand -14.9034 8.39153
rfingers 7.12502
rthumb 11.2579 -21.2864
lclavicle -1.52195e-016 1.19768e-014
lhumerus -35.1116 7.37302 83.2845
lradius 29.6117
lwrist -7.62287
lhand -17.8973 25.7022
lfingers 7.12502
lthumb 8.36941 55.5164
rfemur -4.31478 0.618807 21.9403
rtibia 22.0176
rfoot -12.9923 -8.38001
rtoes -0.454588
lfemur 3.13321 -33.1104 -24.8532
ltibia 6.019
lfoot 0.337454 28.8116
ltoes -6.9515
40
root -0.0560504 18.1617 1.69166 0.721078 2.7598 1.03939
lowerback 5.2308 0.285115 -2.43412
upperback -0.865996 0.213801 -0.159783
thorax -3.83753 0.158067 1.18316
lowerneck -20.5692 -7.35638 -13.8398
upperneck 27.6142 -9.83502 12.5012
head 14.2961 -4.1268 5.57747
rclavicle -5.86415e-015 1.20265e-014
rhumerus -34.7775 -12.5245 -82.6552
rradius 28.9349
rwrist 8.18247
rhand -14.8181 8.32555
rfingers 7.12502
rthumb 11.3402 -21.3478
lclavicle -5.86415e-015 1.20265e-014
lhumerus -35.053 7.43475 83.2958
lradius 29.5882
lwrist -7.6285
lhand -17.9183 26.1445
lfingers 7.12502
lthumb 8.34917 55.9595
rfemur -4.33793 0.636875 21.95
rtibia 21.9932
rfoot -12.9932 -8.36691
rtoes -0.341281
lfemur 2.98526 -33.0852 -24.7606
ltibia 6.15653
lfoot 0.122521 28.8143
ltoes -6.5089
41
root -0.0544375 18.161 1.69 0.725876 2.70132 0.941016
lowerback 5.23099 0.296617 -2.34079
upperback -0.883087 0.235809 -0.139261
thorax -3.85577 0.167515 1.15006
lowerneck -20.473 -7.31862 -13.7983
upperneck 27.5515 -9.79425 12.4843
head 14.2366 -4.11008 5.56902
rclavicle 6.68569e-015 -1.95306e-014
rhumerus -34.8168 -12.5855 -82.6317
rradius 28.9184
rwrist 8.32462
rhand -14.7308 8.36293
rfingers 7.12502
rthumb 11.4244 -21.3058
lclavicle 6.68569e-015 -1.95306e-014
lhumerus -35.1194 7.45134 83.262
lradius 29.6499
lwrist -7.65937
lhand -18.0108 26.2253
lfingers 7.12502
lthumb 8.25994 56.0438
rfemur -4.34643 0.768999 22.0638
rtibia 21.9624
rfoot -12.9403 -8.43486
rtoes -0.431105
lfemur 2.83042 -33.0267 -24.5764
ltibia 6.3192
lfoot 0.0193418 28.8149
ltoes -6.46229
42
root -0.0519669 18.162 1.68901 0.722117 2.72488 0.916285
lowerback 5.25335 0.30133 -2.30722
upperback -0.911493 0.24323 -0.140675
thorax -3.89792 0.171123 1.12898
lowerneck -20.3246 -7.29889 -13.7698
upperneck 27.4877 -9.77467 12.4443
head 14.1684 -4.10861 5.54909
rclavicle -9.18758e-015 5.01931e-015
rhumerus -34.8871 -12.6082 -82.6055
rradius 28.9296
rwrist 8.32551
rhand -14.6817 8.52552
rfingers 7.12502
rthumb 11.4717 -21.1406
lclavicle -9.18758e-015 5.01931e-015
lhumerus -35.1672 7.41339 83.256
lradius 29.6312
lwrist -7.69257
lhand -18.1545 26.1026
lfingers 7.12502
lthumb 8.12121 55.9265
rfemur -4.35209 0.780212 22.0875
rtibia 21.9389
rfoot -12.8748 -8.47834
rtoes -0.712042
lfemur 2.72431 -33.0493 -24.5081
ltibia 6.45409
lfoot 0.0291398 28.8037
ltoes -6.61632
43
root -0.0490631 18.1631 1.68693 0.743253 2.75811 0.892494
lowerback 5.26706 0.298298 -2.2799
upperback -0.95032 0.240199 -0.137565
thorax -3.94567 0.169858 1.11698
lowerneck -20.2551 -7.28665 -13.7875
upperneck 27.5065 -9.76066 12.4413
head 14.16 -4.10738 5.55552
rclavicle 2.34504e-015 3.8763e-015
rhumerus -34.8936 -12.6152 -82.5822
rradius 28.8546
rwrist 8.33433
rhand -14.7558 8.62159
rfingers 7.12502
rthumb 11.4002 -21.0485
lclavicle 2.34504e-015 3.8763e-015
lhumerus -35.1981 7.40763 83.2437
lradius 29.5982
lwrist -7.71554
lhand -18.457 26.0409
lfingers 7.12502
lthumb 7.82929 55.876
rfemur -4.37143 0.789145 22.1023
rtibia 21.9263
rfoot -12.8726 -8.4961
rtoes -0.6432
lfemur 2.64658 -33.0835 -24.455
ltibia 6.5101
lfoot 0.0101957 28.8031
ltoes -6.67826
44
root -0.0474522 18.1623 1.68481 0.724083 2.73926 0.845414
lowerback 5.29087 0.304633 -2.25868
upperback -0.964374 0.250284 -0.110226
thorax -3.97407 0.175113 1.13233
lowerneck -20.2649 -7.28927 -13.8676
upperneck 27.5811 -9.74793 12.4573
head 14.1986 -4.10851 5.58275
rclavicle 5.29031e-015 -4.57205e-015
rhumerus -34.8913 -12.5705 -82.5736
rradius 28.7969
rwrist 8.24169
rhand -14.8607 8.74429
rfingers 7.12502
rthumb 11.2991 -20.9314
lclavicle 5.29031e-015 -4.57205e-015
lhumerus -35.2374 7.42717 83.2722
lradius 29.6349
lwrist -7.70881
lhand -18.6462 26.239
lfingers 7.12502
lthumb 7.64662 56.0808
rfemur -4.35147 0.822204 22.1478
rtibia 21.9288
rfoot -12.9081 -8.48923
rtoes -0.336539
lfemur 2.66754 -33.0627 -24.421
ltibia 6.51429
lfoot -0.0265092 28.8187
ltoes -6.65737
45
root -0.0452526 18.1614 1.68489 0.686094 2.74386 0.869132
lowerback 5.30976 0.311255 -2.28593
upperback -0.962354 0.256294 -0.123154
thorax -3.98296 0.178649 1.13369
lowerneck -20.1951 -7.28778 -13.902
upperneck 27.5597 -9.75425 12.4975
head 14.1804 -4.11235 5.60437
rclavicle -9.01675e-015 2.08724e-015
rhumerus -34.9546 -12.5548 -82.5895
rradius 28.8322
rwrist 8.07388
rhand -14.8168 8.84906
rfingers 7.12502
rthumb 11.3414 -20.8243
lclavicle -9.01675e-015 2.08724e-015
lhumerus -35.2743 7.474 83.2677
lradius 29.6484
lwrist -7.78241
lhand -18.7817 26.4838
lfingers 7.12502
lthumb 7.51582 56.3302
rfemur -4.30751 0.817186 22.1175
rtibia 21.937
rfoot -12.917 -8.50591
rtoes -0.350132
lfemur 2.70595 -33.0643 -24.4734
ltibia 6.54378
lfoot -0.0695303 28.8487
ltoes -6.74631
